Coordinates
version=1
nRows=33
nColumns=32
inDegrees=no

Units are S.I. units (second, meters, Newtons, ...)
If the header above contains a line with 'inDegrees', this indicates whether rotational values are in degrees (yes) or radians (no).

endheader
time	pelvis_tilt	pelvis_list	pelvis_rotation	pelvis_tx	pelvis_ty	pelvis_tz	hip_flexion_r	hip_adduction_r	hip_rotation_r	knee_angle_r	ankle_angle_r	subtalar_angle_r	mtp_angle_r	hip_flexion_l	hip_adduction_l	hip_rotation_l	knee_angle_l	ankle_angle_l	subtalar_angle_l	mtp_angle_l	lumbar_extension	lumbar_bending	lumbar_rotation	arm_flex_r	arm_add_r	arm_rot_r	elbow_flex_r	arm_flex_l	arm_add_l	arm_rot_l	elbow_flex_l
0.005	-0.130847	0.113288	0.0174146	0.859333	1.03869	-0.310875	-0.350377	-0.129636	-0.371881	0.317028	-0.554548	0.0522985	0.0614823	1.03271	0.00702634	-0.165512	1.14795	-0.132906	-0.38524	0.0793585	-0.171652	-0.156199	0.223281	-0.239811	-0.408049	0.111783	2.49825	-1.04007	-0.471118	-0.00410376	2.13575
0.01	-0.136809	0.10829	0.0083357	0.859529	1.03934	-0.309592	-0.347491	-0.132001	-0.350013	0.359948	-0.561764	-0.0366984	0.0615997	1.00895	-0.00367259	-0.174364	1.03078	-0.154954	-0.374705	0.0793989	-0.164305	-0.154947	0.238456	-0.252818	-0.414984	0.110077	2.50307	-1.04279	-0.46813	-0.0118773	2.14393
0.015	-0.141392	0.101655	0.00010936	0.859726	1.03975	-0.308342	-0.343548	-0.131652	-0.326921	0.407417	-0.567393	-0.121114	0.0617172	0.98402	-0.01486	-0.189651	0.919074	-0.176616	-0.352723	0.0794393	-0.15876	-0.151872	0.250926	-0.266102	-0.421304	0.109019	2.50385	-1.04427	-0.46391	-0.0189852	2.15074
0.02	-0.144603	0.0934268	-0.00722903	0.859943	1.03997	-0.307119	-0.338545	-0.128619	-0.302678	0.459404	-0.571553	-0.200839	0.0618346	0.958	-0.0264758	-0.211398	0.812984	-0.197861	-0.319366	0.0794797	-0.155006	-0.147019	0.260668	-0.279662	-0.427002	0.108608	2.50063	-1.04451	-0.458489	-0.0254193	2.1562
0.025	-0.146469	0.0837456	-0.0135762	0.860194	1.04001	-0.305929	-0.332469	-0.123005	-0.277504	0.515819	-0.574534	-0.275534	0.0619521	0.93109	-0.0383353	-0.239635	0.712962	-0.218609	-0.274916	0.0795201	-0.153007	-0.140527	0.267612	-0.29349	-0.432057	0.108835	2.49345	-1.04344	-0.451962	-0.0311577	2.16031
0.03	-0.147059	0.072881	-0.0187502	0.86049	1.03989	-0.304787	-0.325275	-0.115034	-0.251819	0.576508	-0.576756	-0.344581	0.0620695	0.903667	-0.0500965	-0.274311	0.619778	-0.238748	-0.220064	0.0795605	-0.152678	-0.132678	0.271636	-0.307559	-0.43643	0.109687	2.48236	-1.04101	-0.444503	-0.0361639	2.1631
0.035	-0.146505	0.0612296	-0.0225073	0.860837	1.03961	-0.303717	-0.316865	-0.105061	-0.226248	0.641227	-0.578684	-0.40713	0.062187	0.876263	-0.0612737	-0.315158	0.534432	-0.258189	-0.156093	0.0796009	-0.153868	-0.123895	0.272581	-0.321818	-0.440064	0.111139	2.46748	-1.0371	-0.436371	-0.0403842	2.1646
0.04	-0.144994	0.0492983	-0.0245809	0.86123	1.0392	-0.302754	-0.307091	-0.0935634	-0.201573	0.709634	-0.580677	-0.462182	0.0623045	0.849498	-0.0713023	-0.361533	0.457963	-0.276937	-0.0849977	0.0796413	-0.156357	-0.114707	0.270292	-0.336186	-0.442886	0.113151	2.44892	-1.03157	-0.427905	-0.0437477	2.16488
0.045	-0.142746	0.037645	-0.0247302	0.861653	1.03865	-0.301933	-0.295778	-0.0811074	-0.178645	0.781295	-0.58284	-0.50871	0.0624219	0.823966	-0.0796303	-0.41228	0.391244	-0.295169	-0.00951422	0.0796818	-0.159885	-0.105697	0.264662	-0.350556	-0.444822	0.115669	2.42683	-1.02426	-0.419484	-0.0461716	2.16402
0.05	-0.139987	0.0268042	-0.0227942	0.862083	1.03797	-0.301288	-0.282762	-0.0682997	-0.15827	0.855698	-0.584923	-0.545812	0.0625394	0.800135	-0.0858087	-0.465675	0.334805	-0.313266	0.0670014	0.0797222	-0.164191	-0.0974309	0.255672	-0.364799	-0.445806	0.118616	2.40134	-1.01503	-0.411497	-0.0475707	2.16208
0.055	-0.136915	0.0172235	-0.0187227	0.862497	1.03716	-0.30084	-0.267926	-0.0557313	-0.141114	0.932276	-0.58631	-0.572882	0.0626568	0.77827	-0.0895687	-0.519494	0.288755	-0.331752	0.14084	0.0797626	-0.169048	-0.0903862	0.243411	-0.378773	-0.445797	0.121906	2.37261	-1.00376	-0.404294	-0.0478688	2.15915
0.06	-0.133679	0.00921713	-0.0125817	0.862875	1.03624	-0.300597	-0.251221	-0.0439259	-0.127637	1.01044	-0.586104	-0.589765	0.0627743	0.758422	-0.0908647	-0.571206	0.25279	-0.351136	0.208336	0.079803	-0.17428	-0.0849025	0.228063	-0.392331	-0.444794	0.125447	2.34079	-0.990375	-0.39816	-0.0470106	2.15526
0.065	-0.130378	0.0029463	-0.00453831	0.863201	1.03519	-0.300552	-0.232671	-0.0333039	-0.11806	1.0896	-0.583308	-0.596849	0.0628918	0.740442	-0.0898767	-0.618248	0.226282	-0.371693	0.266326	0.0798434	-0.179771	-0.0811509	0.2099	-0.405341	-0.44284	0.129157	2.30605	-0.974885	-0.393288	-0.0449696	2.15045
0.07	-0.127069	-0.00157442	0.00515676	0.86347	1.03404	-0.30069	-0.212368	-0.0241707	-0.112359	1.16923	-0.577041	-0.595071	0.0630092	0.72402	-0.0869677	-0.65834	0.208399	-0.393272	0.312556	0.0798838	-0.185464	-0.0791422	0.189253	-0.417702	-0.440024	0.132969	2.26857	-0.957358	-0.389783	-0.0417499	2.14472
0.075	-0.123757	-0.00443895	0.016184	0.863685	1.03278	-0.300987	-0.190467	-0.0167389	-0.110278	1.24883	-0.566711	-0.585829	0.0631267	0.708721	-0.0826058	-0.689746	0.198205	-0.4152	0.345929	0.0799242	-0.19135	-0.0787708	0.166497	-0.429356	-0.436473	0.136837	2.22855	-0.937927	-0.38766	-0.0373846	2.13804
0.08	-0.120382	-0.00578237	0.0281709	0.863859	1.03141	-0.301416	-0.167181	-0.0111786	-0.111355	1.328	-0.552117	-0.570856	0.0632441	0.694013	-0.0772703	-0.711432	0.194766	-0.4363	0.366521	0.0799646	-0.197481	-0.079884	0.14204	-0.440288	-0.432336	0.140723	2.1862	-0.916764	-0.386869	-0.0319309	2.13037
0.085	-0.116819	-0.00571231	0.0407084	0.864021	1.02995	-0.301949	-0.142783	-0.00766787	-0.114961	1.40641	-0.533487	-0.552067	0.0633615	0.679314	-0.0713628	-0.72309	0.19724	-0.454945	0.375399	0.0800049	-0.203982	-0.0823546	0.11631	-0.450528	-0.427763	0.144589	2.14176	-0.894047	-0.38731	-0.0254626	2.12162
0.09	-0.112894	-0.00426337	0.0533743	0.864199	1.02841	-0.302565	-0.117579	-0.00642564	-0.12035	1.48381	-0.511441	-0.531402	0.063479	0.664058	-0.0651442	-0.725027	0.204965	-0.469115	0.374296	0.0800453	-0.211039	-0.0861307	0.0897357	-0.460142	-0.422886	0.148375	2.09551	-0.869927	-0.388863	-0.0180607	2.11174
0.095	-0.108418	-0.0013896	0.0657609	0.864421	1.02678	-0.303248	-0.0918573	-0.00771173	-0.126711	1.56	-0.486889	-0.510653	0.0635964	0.64778	-0.0587117	-0.718004	0.217526	-0.476446	0.365264	0.0800856	-0.218874	-0.0912421	0.0627225	-0.469227	-0.417814	0.151997	2.04775	-0.844508	-0.39141	-0.00980299	2.10067
0.1	-0.103234	0.00300655	0.0775057	0.864703	1.02509	-0.303991	-0.0658198	-0.0117922	-0.133223	1.63483	-0.460839	-0.491287	0.0637139	0.630201	-0.0520158	-0.703085	0.234757	-0.47433	0.350361	0.0801259	-0.227703	-0.0977671	0.0356275	-0.477899	-0.412625	0.155338	1.99887	-0.817833	-0.394835	-0.000762582	2.08838
0.105	-0.0972581	0.00902085	0.0883151	0.865048	1.02331	-0.304792	-0.0395164	-0.0188731	-0.139082	1.7082	-0.434213	-0.474317	0.0638313	0.611266	-0.0449059	-0.681532	0.256687	-0.460184	0.331411	0.0801663	-0.237696	-0.105773	0.00873194	-0.486289	-0.407388	0.158254	1.94934	-0.789895	-0.39902	0.00898024	2.07488
0.11	-0.090505	0.0166867	0.0979772	0.865437	1.02142	-0.305651	-0.0127952	-0.0290216	-0.143517	1.78002	-0.40772	-0.460246	0.0639487	0.591149	-0.0371943	-0.654753	0.283412	-0.431905	0.309815	0.0802065	-0.248934	-0.115249	-0.0177741	-0.494528	-0.402167	0.160587	1.89969	-0.760667	-0.403832	0.0193182	2.06029
0.115	-0.0831006	0.0259283	0.10637	0.865826	1.01939	-0.306569	0.0147103	-0.0421109	-0.145809	1.85019	-0.381784	-0.449091	0.0640661	0.570215	-0.028718	-0.624272	0.314936	-0.388479	0.286405	0.0802468	-0.261396	-0.126061	-0.0437996	-0.502749	-0.397045	0.162182	1.85057	-0.730133	-0.409103	0.030096	2.0448
0.12	-0.0752708	0.0365442	0.113478	0.866154	1.0172	-0.307543	0.0435524	-0.0578216	-0.145333	1.91855	-0.356536	-0.440428	0.0641836	0.548954	-0.0193674	-0.591628	0.351016	-0.330522	0.261343	0.0802871	-0.274949	-0.137926	-0.0693657	-0.511075	-0.392131	0.162918	1.80268	-0.698333	-0.414623	0.0410899	2.02871
0.125	-0.0673203	0.0482294	0.119408	0.866346	1.01484	-0.308569	0.0744077	-0.07569	-0.141619	1.98484	-0.331843	-0.433451	0.064301	0.527908	-0.00907221	-0.55817	0.391058	-0.260526	0.234133	0.0803273	-0.289371	-0.150442	-0.0946287	-0.519603	-0.387564	0.162736	1.7567	-0.6654	-0.420148	0.0519896	2.01242
0.13	-0.0595976	0.0606229	0.124408	0.866328	1.01233	-0.30964	0.10799	-0.0951819	-0.134409	2.04869	-0.307363	-0.427059	0.0644184	0.507594	0.00222529	-0.524839	0.434107	-0.182615	0.203916	0.0803675	-0.304373	-0.16314	-0.119889	-0.528391	-0.383501	0.161664	1.71331	-0.631594	-0.425412	0.062386	1.9965
0.135	-0.0524436	0.0733351	0.128831	0.866036	1.00967	-0.310741	0.144937	-0.115734	-0.12368	2.10956	-0.282629	-0.41997	0.0645359	0.488398	0.0145517	-0.49207	0.478919	-0.101822	0.170031	0.0804077	-0.319645	-0.175544	-0.145562	-0.537458	-0.380107	0.159812	1.67307	-0.597325	-0.43015	0.0717756	1.9816
0.14	-0.0461378	0.0859759	0.133072	0.865442	1.0069	-0.311858	0.185702	-0.136733	-0.109648	2.16679	-0.257169	-0.410898	0.0646533	0.470471	0.0278006	-0.459894	0.5241	-0.0230918	0.132555	0.0804479	-0.334882	-0.187172	-0.172079	-0.546806	-0.377553	0.15736	1.63642	-0.563157	-0.434123	0.0795931	1.96849
0.145	-0.0408616	0.098115	0.137487	0.86455	1.00407	-0.312974	0.230487	-0.157468	-0.0927518	2.21957	-0.230641	-0.398754	0.0647707	0.453674	0.0416219	-0.428166	0.568254	0.0495983	0.0925426	0.0804881	-0.349773	-0.197523	-0.199769	-0.556468	-0.376003	0.154519	1.60375	-0.529771	-0.437131	0.0852756	1.95804
0.15	-0.0366996	0.109258	0.142315	0.863401	1.00124	-0.314068	0.279238	-0.177105	-0.0736406	2.26706	-0.202964	-0.382853	0.0648881	0.437609	0.0553611	-0.396796	0.610102	0.113718	0.0518932	0.0805283	-0.363977	-0.206093	-0.228737	-0.566539	-0.375613	0.151489	1.57534	-0.497902	-0.439033	0.0883425	1.95107
0.155	-0.0336625	0.118864	0.147614	0.862059	0.998467	-0.315114	0.331691	-0.194727	-0.053135	2.30838	-0.174401	-0.363063	0.0650055	0.421692	0.0680857	-0.365911	0.648561	0.168245	0.0129785	0.0805685	-0.3771	-0.212401	-0.258792	-0.577207	-0.3765	0.148417	1.55143	-0.468242	-0.439755	0.0884749	1.94833
0.16	-0.0317133	0.126398	0.153235	0.860606	0.995812	-0.316077	0.38742	-0.209402	-0.032167	2.34277	-0.145552	-0.339887	0.065123	0.405232	0.0786894	-0.335952	0.682758	0.213436	-0.0217774	0.0806087	-0.388694	-0.216062	-0.289414	-0.588746	-0.378722	0.145351	1.53219	-0.441336	-0.439297	0.0855782	1.95036
0.165	-0.0307846	0.131404	0.158813	0.859126	0.993312	-0.31692	0.445887	-0.220278	-0.0116954	2.36963	-0.117274	-0.31444	0.0652404	0.387497	0.0860516	-0.307706	0.712005	0.250412	-0.0502317	0.0806489	-0.398304	-0.216841	-0.319783	-0.601496	-0.382256	0.142219	1.51773	-0.417511	-0.437728	0.0798152	1.9575
